<svg width="27" height="27" viewBox="0 0 27 27" fill="none" xmlns="http://www.w3.org/2000/svg">
<g id="fi_15753894">
<path id="Vector" d="M13.5 12.9883C10.1154 12.9883 7.36184 10.2347 7.36184 6.85009C7.36184 3.46549 10.1154 0.711914 13.5 0.711914C16.8846 0.711914 19.6382 3.46549 19.6382 6.85009C19.6382 10.2347 16.8846 12.9883 13.5 12.9883ZM13.5 2.03027C10.8424 2.03027 8.6802 4.19244 8.6802 6.85009C8.6802 9.50774 10.8424 11.6699 13.5 11.6699C16.1577 11.6699 18.3198 9.50774 18.3198 6.85009C18.3198 4.19244 16.1577 2.03027 13.5 2.03027ZM21.2623 26.2881H5.73773C4.0632 26.2881 2.70086 24.9257 2.70086 23.2512V21.3514C2.70086 17.3981 5.91708 14.1819 9.87036 14.1819H17.1296C21.0829 14.1819 24.2991 17.3981 24.2991 21.3514V23.2512C24.2992 24.9257 22.9368 26.2881 21.2623 26.2881ZM9.87036 15.5002C6.64402 15.5002 4.01922 18.125 4.01922 21.3514V23.2512C4.01922 24.1988 4.79015 24.9697 5.73773 24.9697H21.2623C22.2099 24.9697 22.9808 24.1988 22.9808 23.2512V21.3514C22.9808 18.125 20.356 15.5002 17.1297 15.5002H9.87036Z" fill="black"/>
</g>
</svg>
